<?xml version="1.0" encoding="UTF-8"?>
<svg xmlns="http://www.w3.org/2000/svg" xmlns:xlink="http://www.w3.org/1999/xlink" width="128pt" height="128pt" viewBox="0 0 128 128" version="1.1">
<g id="surface2119740">
<rect x="0" y="0" width="128" height="128" style="fill:rgb(80.000001%,80.000001%,80.000001%);fill-opacity:1;stroke:none;"/>
<path style=" stroke:none;fill-rule:nonzero;fill:rgb(12.54902%,32.941177%,20.784314%);fill-opacity:1;" d="M 79.199219 26.359375 L 92 26.359375 L 92 39.160156 L 79.199219 39.160156 Z M 92 86.375 C 92 90.695312 90.984375 104.929688 78.425781 109.25 L 66.398438 103.160156 C 75.378906 99.246094 79.199219 92.921875 79.199219 86.375 C 79.199219 77.324219 79.199219 48.761719 79.199219 48.761719 L 92 48.769531 C 92 48.769531 92 76.648438 92 86.375 Z M 56.800781 26.359375 L 56.800781 46.527344 C 55.300781 45.917969 52.0625 45.796875 50.46875 45.796875 C 38.472656 45.796875 28 51.996094 28 67.960938 C 28 87.0625 42.414062 90.351562 52.480469 90.351562 C 56.453125 90.351562 65.28125 89.960938 69.601562 88.710938 L 69.601562 26.359375 Z M 52.347656 79.691406 C 46.6875 79.691406 40.800781 77.121094 40.800781 67.960938 C 40.800781 58.800781 46.6875 56.859375 52.347656 56.859375 C 53.730469 56.859375 55.285156 57.121094 56.800781 57.464844 L 56.800781 79.085938 C 55.289062 79.429688 53.734375 79.691406 52.347656 79.691406 Z M 52.347656 79.691406 "/>
</g>
</svg>
